# xmcd
#
# Track frame offsets: 
#        150
#        23776
#        43288
#        68439
#        93668
#        113498
#        136849
#        164068
#        189491
#        201191
#
# Disc length: 2990 seconds
#
# Revision: 1
# Processed by: cddbd v1.5.2PL0 Copyright (c) Steve Scherf et al.
# Submitted via: ExactAudioCopy v0.99pb3
#
DISCID=870bac0a
DTITLE=Puissance - Grace Of God
DYEAR=2007
DGENRE=Industrial
TTITLE0=Grace Of God
TTITLE1=Stance
TTITLE2=Walls Of Freedom
TTITLE3=Warzone
TTITLE4=In Death
TTITLE5=Conspiracy
TTITLE6=Brittle
TTITLE7=Loreto
TTITLE8=Hidden Track
TTITLE9=Data Track
EXTD=
EXTT0=
EXTT1=
EXTT2=
EXTT3=
EXTT4=
EXTT5=
EXTT6=
EXTT7=
EXTT8=
EXTT9=
PLAYORDER=
